<svg width="25" height="28" viewBox="0 0 25 28" fill="none" xmlns="http://www.w3.org/2000/svg">
<path d="M3.75488 0.25C5.06395 0.250083 6.2165 0.727056 6.82031 1.49219H8.60254C8.92077 1.49233 9.20914 1.71566 9.25586 2.03516H17.2314C20.3138 2.03516 22.8553 4.35847 22.8555 7.25488C22.8555 10.1515 20.3139 12.4756 17.2314 12.4756H15.2607C14.9441 13.8767 13.6115 14.9129 12.0391 14.9131C10.4664 14.9131 9.13305 13.8768 8.81641 12.4756H7.75195C5.36441 12.4758 3.45524 14.2682 3.45508 16.4307C3.45508 18.5932 5.36431 20.3865 7.75195 20.3867H17.3604V15.8242C17.3606 15.4573 17.677 15.1924 18.0244 15.1924H24.0869C24.4341 15.1924 24.7498 15.4574 24.75 15.8242V26.625C24.75 26.992 24.4343 27.2577 24.0869 27.2578H18.0234C17.676 27.2577 17.3604 26.9921 17.3604 26.625V21.6514H7.75195C4.66952 21.6514 2.12793 19.3272 2.12793 16.4307C2.12809 13.5342 4.66962 11.2109 7.75195 11.2109H8.81641C9.13294 9.80963 10.4654 8.77351 12.0381 8.77344C13.6109 8.77344 14.9443 9.80951 15.2607 11.2109H17.2314C19.6191 11.2108 21.5283 9.41747 21.5283 7.25488C21.5281 5.09246 19.619 3.29996 17.2314 3.2998H9.25195C9.19039 3.60118 8.90948 3.80846 8.60254 3.80859H6.87891C6.29197 4.61753 5.10338 5.12305 3.75488 5.12305C2.80118 5.12303 1.93697 4.87259 1.30371 4.44727C0.670563 4.02197 0.250012 3.40585 0.25 2.68652C0.25 1.96721 0.670643 1.3511 1.30371 0.925781C1.93687 0.500488 2.80122 0.25 3.75488 0.25ZM23.4229 22.9873C23.2259 23.6046 22.6121 24.04 21.9131 24.04H20.1963C19.4973 24.04 18.8835 23.6044 18.6865 22.9873V25.9932H23.4229V22.9873ZM20.1963 19.293C19.8123 19.293 19.5334 19.5773 19.5332 19.8867V22.5625C19.5332 22.8721 19.8121 23.1572 20.1963 23.1572H21.9131C22.2972 23.1572 22.5762 22.8721 22.5762 22.5625V19.8867C22.5759 19.5773 22.2971 19.293 21.9131 19.293H20.1963ZM18.6865 19.4619C18.8837 18.8451 19.4976 18.4102 20.1963 18.4102H21.9131C22.6121 18.4102 23.2257 18.8451 23.4229 19.4619V16.457H18.6865V19.4619ZM12.0381 10.0381C10.9324 10.0382 10.0666 10.8659 10.0664 11.8428C10.0664 12.8198 10.9322 13.6484 12.0381 13.6484C13.144 13.6484 14.0098 12.8199 14.0098 11.8428C14.0096 10.8658 13.1439 10.0381 12.0381 10.0381ZM12.0381 10.3623C12.2715 10.3623 12.4951 10.5421 12.4951 10.8037V11.9502C12.4951 12.0879 12.4324 12.2023 12.3398 12.2803H12.7656C13.0379 12.2803 13.293 12.4896 13.293 12.7871C13.2927 13.0844 13.0378 13.293 12.7656 13.293H11.3105C11.0723 13.2929 10.8472 13.133 10.7949 12.8936L10.7842 12.7871L10.7949 12.6797C10.8473 12.4403 11.0723 12.2803 11.3105 12.2803H11.7373C11.6445 12.2023 11.582 12.088 11.582 11.9502V10.8037C11.582 10.5422 11.8047 10.3624 12.0381 10.3623ZM3.75488 1.51465C3.13496 1.51465 2.57202 1.66861 2.17285 1.90234C1.7655 2.14095 1.57617 2.42945 1.57617 2.68652C1.57619 2.9436 1.7655 3.23211 2.17285 3.4707C2.57202 3.70444 3.13496 3.8584 3.75488 3.8584C4.37464 3.85834 4.93683 3.70444 5.33594 3.4707C5.74351 3.23201 5.9326 2.94344 5.93262 2.68652C5.93262 2.4294 5.74343 2.14097 5.33594 1.90234C4.93684 1.66865 4.37466 1.51471 3.75488 1.51465Z" fill="#0D7377" stroke="#0D7377" stroke-width="0.5"/>
</svg>
