<svg width="16" height="16" viewBox="0 0 16 16" fill="none" xmlns="http://www.w3.org/2000/svg">
<path d="M4 0.5H12C13.1016 0.5 13.951 0.821194 14.5312 1.45508C15.1179 2.09592 15.5 3.1331 15.5 4.70605V11.2939C15.5 12.8669 15.1179 13.9041 14.5312 14.5449C13.951 15.1788 13.1016 15.5 12 15.5H4C2.89843 15.5 2.04904 15.1788 1.46875 14.5449C0.882132 13.9041 0.5 12.8669 0.5 11.2939V4.70605C0.5 3.1331 0.882132 2.09592 1.46875 1.45508C2.04904 0.821194 2.89843 0.5 4 0.5Z" stroke="black" stroke-miterlimit="10" stroke-linecap="round" stroke-linejoin="round"/>
<mask id="path-2-inside-1_383_6" fill="white">
<path d="M13 4L8.9032 7.64506C8.37121 8.11831 7.62881 8.11831 7.09682 7.64506L3 4"/>
</mask>
<path d="M13.6647 4.7471C14.0773 4.37998 14.1142 3.74789 13.7471 3.33528C13.38 2.92267 12.7479 2.88579 12.3353 3.2529L13 4L13.6647 4.7471ZM8.9032 7.64506L9.56785 8.39222L9.56791 8.39216L8.9032 7.64506ZM7.09682 7.64506L6.43211 8.39216L6.43217 8.39222L7.09682 7.64506ZM3.66471 3.2529C3.2521 2.88579 2.62001 2.92267 2.2529 3.33529C1.88579 3.7479 1.92267 4.37999 2.33529 4.7471L3 4L3.66471 3.2529ZM13 4L12.3353 3.2529L8.23848 6.89797L8.9032 7.64506L9.56791 8.39216L13.6647 4.7471L13 4ZM8.9032 7.64506L8.23854 6.89791C8.08553 7.03403 7.91448 7.03403 7.76147 6.89791L7.09682 7.64506L6.43217 8.39222C7.34313 9.20259 8.65689 9.20259 9.56785 8.39222L8.9032 7.64506ZM7.09682 7.64506L7.76154 6.89797L3.66471 3.2529L3 4L2.33529 4.7471L6.43211 8.39216L7.09682 7.64506Z" fill="black" mask="url(#path-2-inside-1_383_6)"/>
</svg>
