<svg width="65" height="79" viewBox="0 0 65 79" fill="none" xmlns="http://www.w3.org/2000/svg">
<path d="M50.5413 39.3067H48.1231C45.6195 39.3067 44.3679 39.3067 43.3302 40.0915C42.2928 40.8763 41.6486 42.3101 40.3607 45.1776L40.2675 45.3852C39.0678 48.0565 38.4676 49.3923 37.5949 49.3701C36.722 49.3484 36.1599 47.9835 35.0362 45.2538L29.9448 32.888C28.8969 30.3427 28.3731 29.0701 27.536 29.0098C26.6993 28.9494 26.0759 30.1392 24.8289 32.5187L23.9749 34.1488C22.6505 36.6762 21.9883 37.9398 21.0058 38.6231C20.0233 39.3067 18.8685 39.3067 16.559 39.3067H14.332" stroke="#0D7377" stroke-width="3" stroke-linecap="round"/>
<path d="M24.9453 69.1494C26.3423 70.6458 27.4365 71.7514 28.3975 72.5117C29.2617 73.1954 30.07 73.6401 30.9375 73.8711V76.9238C29.9207 76.6686 28.9643 76.1486 27.96 75.3672C26.6311 74.3332 25.3101 72.9215 23.708 71.1768L24.9453 69.1494ZM41.166 71.1768C39.5641 72.9213 38.2438 74.3333 36.915 75.3672C35.9107 76.1486 34.9543 76.6686 33.9375 76.9238V73.8711C34.805 73.6401 35.6133 73.1954 36.4775 72.5117C37.4384 71.7515 38.5319 70.6456 39.9287 69.1494L41.166 71.1768ZM3.07031 29.7637C3.43694 36.2392 6.12024 43.0597 9.92578 49.5752C13.7629 56.1445 18.593 62.1541 22.834 66.8516L21.6055 68.8643C17.447 64.2005 12.7485 58.2876 8.94824 51.7812C5.02062 45.0567 1.90325 37.447 1.53711 29.7637H3.07031ZM63.3379 29.7637C62.9717 37.4471 59.8542 45.0572 55.9268 51.7812C52.1262 58.2878 47.4269 64.2007 43.2686 68.8643L42.04 66.8516C46.2812 62.1541 51.112 56.1447 54.9492 49.5752C58.7545 43.0598 61.438 36.2392 61.8047 29.7637H63.3379ZM42.793 2.39062C46.292 1.01761 49.6874 1.25128 52.7568 2.95703C58.6977 6.25863 63.0143 14.9387 63.3516 26.7637H61.8223C61.4933 16.3066 57.7279 8.83692 52.4756 5.91797C49.707 4.37947 46.4103 4.0642 42.9727 5.39941C40.5452 6.3423 38.096 8.08904 35.7002 10.7236L35.3252 10.1846C35.0062 9.72654 34.6834 9.2822 34.3584 8.85059C37.1563 5.58247 40.0303 3.47469 42.793 2.39062ZM12.1182 2.95801C15.1877 1.25214 18.5829 1.01767 22.082 2.39062C24.8445 3.47461 27.7179 5.58275 30.5156 8.85059C30.1908 9.28206 29.8687 9.72671 29.5498 10.1846L29.1738 10.7236C26.7782 8.0893 24.3297 6.34221 21.9023 5.39941C18.4647 4.06425 15.1679 4.37945 12.3994 5.91797C7.14702 8.83701 3.38176 16.307 3.05273 26.7637H1.52344C1.8607 14.939 6.17733 6.25966 12.1182 2.95801Z" stroke="#0D7377" stroke-width="3"/>
</svg>
