<svg width="27" height="27" viewBox="0 0 27 27" fill="none" xmlns="http://www.w3.org/2000/svg">
<path d="M1.5 13.7447C1.5 10.9986 1.5 9.62554 2.12304 8.48729C2.74608 7.34905 3.88434 6.64261 6.16084 5.22976L8.56084 3.74024C10.9673 2.24675 12.1705 1.5 13.5 1.5C14.8295 1.5 16.0327 2.24675 18.4392 3.74024L20.8392 5.22974C23.1157 6.64261 24.2539 7.34905 24.877 8.48729C25.5 9.62554 25.5 10.9986 25.5 13.7447V15.57C25.5 20.251 25.5 22.5916 24.0941 24.0457C22.6883 25.5 20.4254 25.5 15.9 25.5H11.1C6.57451 25.5 4.31178 25.5 2.90588 24.0457C1.5 22.5916 1.5 20.251 1.5 15.57V13.7447Z" stroke="#818181" stroke-width="3"/>
</svg>
