<svg width="60" height="60" viewBox="0 0 60 60" fill="none" xmlns="http://www.w3.org/2000/svg">
<path d="M29.755 59.5099C13.3897 59.5099 0 46.1202 0 29.755C0 13.3897 13.3897 0 29.755 0C46.1202 0 59.5099 13.3897 59.5099 29.755C59.5099 46.1202 46.1202 59.5099 29.755 59.5099ZM23.556 42.1529C25.0438 49.8396 27.7713 54.5508 29.755 54.5508C31.7386 54.5508 34.4662 49.8396 35.9539 42.1529H23.556ZM41.161 42.1529C40.4172 46.3682 39.1774 50.3355 37.6896 53.311C43.3927 51.3273 48.3518 47.36 51.3273 42.1529H41.161ZM8.18262 42.1529C11.1581 47.36 16.1173 51.3273 21.8203 53.311C20.3326 50.3355 19.0928 46.3682 18.3489 42.1529H8.18262ZM41.9049 37.1937H53.559C54.0549 34.9621 54.5508 32.2346 54.5508 29.755C54.5508 27.2754 54.0549 24.5479 53.311 22.3162H41.657C42.1529 24.7958 42.1529 27.2754 42.1529 29.755C42.1529 32.2346 42.1529 34.7141 41.9049 37.1937ZM22.8121 37.1937H36.9458C37.1937 34.9621 37.4417 32.4825 37.4417 29.755C37.4417 27.0274 37.1937 24.5479 36.9458 22.3162H22.8121C22.5642 24.5479 22.3162 27.0274 22.3162 29.755C22.3162 32.4825 22.5642 34.9621 22.8121 37.1937ZM6.19895 37.1937H17.853C17.605 34.7141 17.605 32.2346 17.605 29.755C17.605 27.2754 17.605 24.7958 17.853 22.3162H6.19895C5.45508 24.5479 4.95916 27.2754 4.95916 29.755C4.95916 32.2346 5.45508 34.9621 6.19895 37.1937ZM41.161 17.3571H51.3273C48.3518 12.1499 43.3927 8.18262 37.6896 6.19895C39.1774 9.17445 40.4172 13.1418 41.161 17.3571ZM23.556 17.3571H36.2019C34.7141 9.67037 31.9866 4.95916 30.0029 4.95916C28.0193 4.95916 25.0438 9.67037 23.556 17.3571ZM8.18262 17.3571H18.3489C19.0928 13.1418 20.3326 9.17445 21.8203 6.19895C16.1173 8.18262 11.4061 12.1499 8.18262 17.3571Z" fill="#0D7377"/>
</svg>
