<svg width="24" height="24" viewBox="0 0 24 24" fill="none" xmlns="http://www.w3.org/2000/svg">
<path d="M22 16.92V19.92C22.0012 20.1986 21.9441 20.4743 21.8525 20.7302C21.761 20.986 21.6369 21.2166 21.4879 21.4079C21.339 21.5992 21.1683 21.7471 20.9862 21.8427C20.8041 21.9383 20.6044 21.9796 20.4 21.96C17.4373 21.6377 14.595 20.6212 11.99 18.98C9.57718 17.4578 7.53856 15.4208 6.01494 13.01C4.36611 10.4011 3.34969 7.5463 3.03362 4.57723C3.01426 4.37397 3.05587 4.16912 3.15579 3.98616C3.2557 3.80319 3.4116 3.64654 3.611 3.52825C3.81041 3.40996 4.04944 3.33235 4.30514 3.30064C4.56083 3.26893 4.82586 3.28401 5.07409 3.34469C5.5947 3.47141 6.01014 3.87 6.13 4.39L7.1 8.5C7.2 8.92 7.14 9.36 6.94 9.73L5.43 11.23C6.84832 13.7258 8.78913 15.666 11.29 17.08L12.79 15.58C13.16 15.18 13.6 15.12 14.02 15.22L18.13 16.19C18.6664 16.314 19.0628 16.7347 19.1822 17.2657C19.3015 17.7967 19.1256 18.3514 18.72 18.73L22 16.92Z" stroke="black" stroke-width="2" stroke-linecap="round" stroke-linejoin="round"/>
</svg>
