<svg width="25" height="25" viewBox="0 0 25 25" fill="none" xmlns="http://www.w3.org/2000/svg">
<path d="M22.6146 13.4535L22.62 13.4585L11.4872 2.39428L11.4876 2.39503C10.233 1.13303 8.581 0.498965 6.93639 0.500001C5.29165 0.498965 3.64006 1.13298 2.38512 2.39503C1.12958 3.65661 0.498877 5.31743 0.500002 6.97099C0.498877 8.62417 1.12958 10.2849 2.38512 11.5466L13.5151 22.6083L13.512 22.605C14.7669 23.867 16.4185 24.5011 18.0637 24.5C19.7081 24.5011 21.3598 23.867 22.6147 22.6054C23.8704 21.3434 24.501 19.6826 24.5 18.0291C24.501 16.3755 23.8703 14.7147 22.6146 13.4535ZM8.21294 15.1334C8.2097 15.1435 8.20736 15.1528 8.20399 15.163L3.46845 10.4563L3.46882 10.4571C2.51004 9.49245 2.03351 8.23516 2.03276 6.97099C2.03347 5.70644 2.51 4.44948 3.46882 3.48489C4.42835 2.521 5.67879 2.04174 6.93644 2.04103C8.19391 2.04174 9.44439 2.521 10.4039 3.48489L10.4089 3.48998L15.3192 8.36975C14.3507 8.57403 13.4761 8.93345 12.7081 9.39612C11.0459 10.3987 9.8642 11.8486 9.08594 13.2074C8.69664 13.888 8.40817 14.548 8.21294 15.1334ZM21.5309 21.5155C20.5714 22.4791 19.3211 22.9583 18.0637 22.959C16.8056 22.9583 15.5552 22.4794 14.5957 21.5152L14.5928 21.5123L9.46426 16.4152C9.47955 16.316 9.50214 16.1993 9.53495 16.0702C9.65359 15.5927 9.89251 14.9493 10.2529 14.269C10.7931 13.2466 11.6069 12.1388 12.6824 11.2842C13.753 10.435 15.0663 9.8284 16.694 9.73637L21.5288 14.5411L21.5309 14.5429C22.49 15.5076 22.9664 16.7648 22.9671 18.029C22.9664 19.2932 22.4901 20.5505 21.5309 21.5155Z" fill="#898686" stroke="#818181"/>
</svg>
