<svg width="27" height="28" viewBox="0 0 27 28" fill="none" xmlns="http://www.w3.org/2000/svg">
<path fill-rule="evenodd" clip-rule="evenodd" d="M12.3 26.1154C11.6716 26.1154 11.1355 25.6489 11.0332 25.013C10.9389 24.4985 10.5778 24.0781 10.092 23.9176C9.69618 23.7782 9.30914 23.6138 8.93316 23.4253C8.48576 23.1905 7.94904 23.2257 7.5343 23.5167C7.03241 23.8868 6.34295 23.8295 5.90573 23.3813L4.20516 21.6371C3.74749 21.1677 3.68803 20.4277 4.06459 19.8877C4.355 19.4525 4.39683 18.8915 4.1743 18.416C4.02768 18.0858 3.89835 17.7477 3.78687 17.4033C3.62721 16.8605 3.1865 16.454 2.64344 16.3484C1.98856 16.2411 1.5051 15.6642 1.50002 14.984V12.802C1.49654 12.018 2.04866 11.3474 2.80287 11.2196C3.37504 11.1079 3.85281 10.706 4.07145 10.1523C4.13659 9.9964 4.20516 9.84168 4.27716 9.68813C4.56794 9.11396 4.52778 8.42239 4.17258 7.88769C3.72839 7.25452 3.7966 6.38455 4.33372 5.83231L5.58345 4.55055C6.19981 3.91815 7.17191 3.8363 7.88059 4.35714L7.92001 4.38527C8.44919 4.75057 9.12256 4.81673 9.70972 4.5611C10.3379 4.32921 10.8009 3.77559 10.9286 3.10352L10.9458 3.04374C11.0868 2.15401 11.836 1.50037 12.7149 1.5H14.2235C15.126 1.49958 15.8963 2.16913 16.044 3.08242L16.0714 3.20549C16.1926 3.84931 16.6316 4.38215 17.2303 4.61209C17.8073 4.8661 18.4709 4.79976 18.9892 4.43626L19.0749 4.37297C19.8019 3.83554 20.8016 3.9182 21.4355 4.56813L22.5857 5.74967C23.1622 6.34424 23.2347 7.27922 22.7571 7.95978C22.383 8.52861 22.3353 9.25956 22.632 9.87451L22.7058 10.0503C22.946 10.6508 23.4659 11.0859 24.0874 11.2073C24.8999 11.3432 25.4974 12.0616 25.5 12.9057V14.8626C25.4998 15.6071 24.9748 16.2422 24.2589 16.3642C23.67 16.48 23.1904 16.9173 23.0091 17.5035C22.9291 17.7379 22.84 17.9724 22.7417 18.2068C22.5129 18.722 22.5637 19.3222 22.8755 19.7892C23.2867 20.3761 23.2229 21.1823 22.7246 21.6934L21.1287 23.3321C20.6722 23.8001 19.9524 23.8604 19.4281 23.4745C18.9903 23.1677 18.4233 23.1339 17.9538 23.3866C17.6192 23.5566 17.2758 23.7075 16.9252 23.8385C16.4349 24.012 16.0734 24.4424 15.9789 24.9655C15.8789 25.6236 15.3287 26.1105 14.6794 26.1154H12.3Z" stroke="#818181" stroke-width="3" stroke-linecap="round" stroke-linejoin="round"/>
<path fill-rule="evenodd" clip-rule="evenodd" d="M17.4994 13.8076C17.4994 16.0731 15.7088 17.9095 13.4999 17.9095C11.291 17.9095 9.50049 16.0731 9.50049 13.8076C9.50049 11.5421 11.291 9.70557 13.4999 9.70557C15.7088 9.70557 17.4994 11.5421 17.4994 13.8076Z" stroke="#818181" stroke-width="3" stroke-linecap="round" stroke-linejoin="round"/>
</svg>
