<svg width="295" height="190" viewBox="0 0 295 190" fill="none" xmlns="http://www.w3.org/2000/svg">
<path d="M166.033 78.8205L161.127 63.6661V63.5229C160.741 62.3773 160.035 61.3676 159.093 60.6145C158.151 59.8614 157.013 59.3967 155.815 59.2759C154.617 59.1552 153.41 59.3834 152.337 59.9334C151.265 60.4835 150.373 61.332 149.768 62.3776C149.637 62.601 149.521 62.8333 149.422 63.073L148.425 65.7317L139.854 88.7598L138.572 83.4425L135.661 72.2352L132.343 59.5758V59.4122L132.119 58.5533C131.859 57.0829 131.116 55.7423 130.009 54.7453C128.902 53.7483 127.495 53.1521 126.012 53.0519C124.828 52.9833 123.653 53.29 122.653 53.9284C121.652 54.5669 120.876 55.505 120.434 56.6104L117.686 63.9728V64.1569L111.986 78.8614H112.108H73.8381V92.1138H116.119C117.467 92.0721 118.772 91.6222 119.861 90.823C120.951 90.0238 121.775 88.9126 122.226 87.635L124.994 81.6632C125.088 82.2854 125.224 82.9004 125.401 83.5038L133.096 114.447C133.689 115.429 134.515 116.248 135.5 116.83C136.486 117.412 137.599 117.739 138.742 117.781C139.884 117.824 141.019 117.581 142.045 117.074C143.07 116.567 143.955 115.811 144.618 114.876L154.959 85.3035L155.325 87.3486C155.727 88.6263 156.512 89.7481 157.572 90.5608C158.632 91.3735 159.917 91.8372 161.249 91.8888H197.321V78.8818L166.033 78.8205ZM138.572 50.6386V50.4955H138.694L138.572 50.6386Z" fill="#E3645A"/>
<path d="M101.808 166.965C101.808 167.968 101.808 169.011 101.808 169.767C101.798 171.112 101.355 172.418 100.546 173.489C97.5942 178.5 87.5177 186.578 78.8865 188.173H78.6626C76.0366 189.38 68.4843 189.891 61.3391 188.378C55.4479 187.091 49.9439 184.421 45.2777 180.586C42.8612 178.348 40.7034 175.844 38.8451 173.121L38.4379 172.508L37.7661 171.465L37.0945 170.36L36.8502 169.91L35.9341 168.131C35.9341 168.131 35.6898 167.62 35.588 167.374C35.0637 166.235 34.6413 165.051 34.3259 163.836C33.8966 162.791 33.5363 161.718 33.247 160.626C32.8399 158.949 32.2292 156.372 31.8424 153.795C31.5857 153.542 31.2985 153.322 30.9875 153.14C19.5674 146.269 8.39159 132.464 8.39159 119.968C8.32932 114.185 9.29446 108.437 11.2416 102.994C11.6532 101.992 11.7646 100.891 11.5621 99.8268C11.3596 98.7622 10.852 97.7803 10.1016 97.0016C3.88625 90.8108 0.278419 82.456 0.0250596 73.6668C-0.190669 67.8272 0.989 62.0206 3.46533 56.733C8.28984 46.5074 18.977 38.3269 29.2367 35.2797C30.2846 34.9684 31.2232 34.3652 31.9438 33.5399C32.6644 32.7146 33.1374 31.7011 33.308 30.6168V30.2896C36.8094 9.83828 53.4814 0.0012239 69.4614 0.0012239C77.5056 -0.0639395 85.357 2.47456 91.8536 7.24099C96.3321 9.81785 102.032 17.2621 101.666 20.7388V41.1901H92.22C91.4762 41.1902 90.7399 41.0414 90.054 40.7524C89.3681 40.4634 88.7464 40.04 88.2252 39.5069C87.7041 38.9737 87.2938 38.3416 87.0186 37.6474C86.7433 36.9532 86.6084 36.2109 86.622 35.4637L86.7441 27.8559C87.1023 26.7155 87.1377 25.4975 86.846 24.3382C86.5378 23.165 85.951 22.0843 85.136 21.1888C82.0418 17.7121 75.6498 15.2783 69.38 15.2783C58.3467 15.2783 49.6137 23.6634 48.6162 31.0872C48.378 32.2434 48.289 33.4257 48.3516 34.6048C48.3516 34.9525 48.3516 35.3206 48.4534 35.6683C51.4664 36.5402 54.2649 38.0347 56.6697 40.0562C59.0744 42.0777 61.0324 44.5815 62.4181 47.4073C62.8792 48.4293 63.077 49.5515 62.9931 50.6705C62.9092 51.7895 62.5464 52.8693 61.9381 53.8105C61.3298 54.7516 60.4955 55.5238 59.5122 56.056C58.5288 56.5882 57.428 56.8633 56.3111 56.8558H49.8783C49.809 56.4417 49.693 56.0368 49.5323 55.6491C49.3084 53.0518 45.0131 49.2479 41.8986 49.2479C41.1861 49.2479 40.555 49.2479 39.9851 49.2479H39.7C36.7914 49.2861 33.917 49.8831 31.2318 51.0067C28.5525 51.9604 26.0435 53.3415 23.8015 55.097C20.8446 57.363 18.4959 60.3332 16.9677 63.7395C15.4395 67.1458 14.7798 70.8809 15.0482 74.6075C15.4147 79.7612 19.486 85.508 23.6184 89.1074C24.7321 90.102 25.9545 90.9665 27.2622 91.6843C28.7011 93.0331 29.7314 94.7629 30.2343 96.6744C30.2383 98.5817 29.7843 100.462 28.9111 102.155C28.9111 102.155 28.9111 102.36 28.7686 102.442C28.6699 102.617 28.554 102.781 28.4225 102.933L28.1375 103.444C25.7243 107.298 24.2526 111.671 23.8423 116.205C23.8423 121.993 25.878 130.378 29.7254 133.446C32.6021 136.666 36.0545 139.316 39.9037 141.258C44.9215 143.261 50.4519 143.57 55.6597 142.138C56.2178 141.97 56.7568 141.744 57.2678 141.463C57.9302 141.155 58.5148 140.7 58.9778 140.133C59.1193 139.96 59.2358 139.767 59.3238 139.561C59.3802 139.435 59.4278 139.305 59.4663 139.172C59.9049 138.095 60.1264 136.941 60.1178 135.777C60.1178 132.178 58.7741 128.865 55.0692 129.417L52.6876 129.867V120.48C52.6816 119.555 52.9011 118.643 53.3269 117.823C53.7527 117.003 54.372 116.3 55.1304 115.776C56.2028 115.036 57.4989 114.696 58.7945 114.815L60.3824 114.958C60.5045 114.958 60.9727 114.958 61.0541 115.081L62.3773 115.408L63.3138 115.796C63.9541 116.078 64.5732 116.406 65.1662 116.778L65.4716 116.962C68.2054 118.709 70.4812 121.09 72.1073 123.906C73.7334 126.721 74.6621 129.888 74.8152 133.139V133.2C74.9373 134.427 74.9984 135.716 74.9984 136.902C75.0196 139.941 74.4527 142.956 73.3292 145.778C69.9703 155.308 57.9802 158.049 48.1887 157.783C48.7131 159.557 49.3593 161.293 50.1226 162.977C50.9617 164.605 51.9571 166.146 53.0947 167.579V167.702C54.3772 168.786 55.8021 170.054 56.4535 170.626L59.0592 172.058L59.3848 172.262L59.8531 172.549L60.6471 173.039C61.2696 173.419 61.9619 173.67 62.6827 173.776L63.8227 173.96C67.8567 174.691 71.9826 174.753 76.0366 174.144C77.9298 173.796 82.1435 170.626 85.7466 168.274C85.9005 168.121 86.0434 167.957 86.1742 167.783L86.3167 167.599C86.4014 167.451 86.4696 167.293 86.5202 167.129C86.5202 166.904 86.6628 166.679 86.7238 166.475V120.459C86.7238 118.593 87.4615 116.804 88.7748 115.485C90.088 114.165 91.8693 113.424 93.7265 113.424H101.869L101.808 166.965Z" fill="#0D7377"/>
<path d="M264.864 92.1138C264.661 88.2281 264.457 83.9333 264.315 79.8431H260.732C259.755 82.8971 258.69 86.0875 257.536 89.4142L256.518 92.2979H264.905L264.864 92.1138ZM235.531 89.8233C234.404 86.3466 233.38 82.9994 232.457 79.7817H229.2C229.037 83.872 228.833 88.269 228.609 92.3797H236.345L235.531 89.8233Z" fill="#0D7377"/>
<path d="M221.912 96.9199L220.365 118.885H226.472L228.019 97.2062C228.019 97.2062 228.019 97.0221 228.019 96.9199H221.912ZM270.503 96.9199H264.254L265.516 118.925H271.867L270.503 96.9199ZM250.004 97.0835C248.416 101.767 247.113 106.021 246.136 109.988H245.912C244.915 105.898 243.673 101.685 242.187 97.0835H235.714L243.042 118.885H247.989L255.846 97.1858L250.004 97.0835ZM232.294 58.3283H223.948L222.787 74.9348H228.609C228.772 71.2944 228.874 67.8381 228.955 64.8522H229.118C229.871 68.0631 230.808 71.4171 231.866 74.9348H238.197L232.294 58.3283ZM268.936 58.3283H260.63L254.523 74.9348H260.284C261.465 71.4376 262.503 68.0835 263.439 64.8522H263.684C263.684 67.8586 263.684 71.3353 263.867 74.9348H269.974L268.936 58.3283Z" fill="#0D7377"/>
<path d="M242.818 92.2979H236.345L235.531 89.7415C234.404 86.2648 233.38 82.9176 232.457 79.6999H238.686L241.454 87.8804C241.923 89.5165 242.391 90.9685 242.818 92.2979Z" fill="#0D7377"/>
<path d="M260.732 79.7817C259.755 82.8358 258.689 86.0261 257.536 89.3529L256.518 92.2979H250.655L252.101 87.9417L254.991 79.7612L260.732 79.7817Z" fill="#0D7377"/>
<path d="M294.483 32.9892V144.735H277.099V92.2979H264.885V92.032C264.681 88.1462 264.478 83.8515 264.335 79.7612H277.119V32.9892H294.483Z" fill="#0D7377"/>
<path d="M229.2 79.7817C229.037 83.8719 228.833 88.269 228.609 92.3797H212.731V144.755H195.55V32.9892H212.731V79.7612L229.2 79.7817Z" fill="#0D7377"/>
</svg>
